<svg xmlns="http://www.w3.org/2000/svg" width="106" height="148">
    <text fill="#333" font-family="Noto Sans CJK KR" font-size="16.005" transform="matrix( 1.50280383222633, 0, 0, 1.49956983212727,0.48001167135408, 145.761343283218)">
        업로드하기
    </text>
    <path fill="#4F61FF" fill-opacity="0" fill-rule="evenodd" d="M7.999 0H98v90H7.999V0z"/>
    <path fill="#333" fill-rule="evenodd" d="M7.999 72.973V4.865H23.81V0h9.73v4.865h14.594V0h9.73v4.865h14.595V0h9.73v4.865H98v68.108H7.999zm23.109-70.54h-4.864V9.73h4.864V2.433zm24.324 0h-4.865V9.73h4.865V2.433zm24.325 0h-4.864V9.73h4.864V2.433zm15.809 4.864H82.189v4.865h-9.73V7.297H57.864v4.865h-9.73V7.297H33.54v4.865h-9.73V7.297H10.432v9.731h85.134V7.297zm0 12.162H10.432v51.082h85.134V19.459zM15.297 80.271h75.405v-4.866h2.432v7.298h-80.27v-7.298h2.433v4.866zm4.866 7.297h65.675v-2.433h2.432V90H17.731v-4.865h2.432v2.433z"/>
    <path fill="#157EFF" fill-rule="evenodd" d="M53.064 61.832L38.62 40.824l2.005-1.378 12.312 17.911 16.051-26.368 2.077 1.265-18.001 29.578z"/>
</svg>
